<svg xmlns="http://www.w3.org/2000/svg" viewBox="0 0 72 72" width="72" height="72">
  <path
    fill="currentColor"
    fill-rule="evenodd"
    d="
      M8,72 L64,72 C68.418,72 72,68.418 72,64 L72,8 C72,3.582 68.418,0 64,0 L8,0
      C3.582,0 0,3.582 0,8 L0,64 C0,68.418 3.582,72 8,72 Z

      M21.769,62 L11.033,62 L11.033,27.333 L21.769,27.333 Z

      M16.349,22.794
      C12.842,22.794 10,19.93 10,16.397
      C10,12.864 12.842,10 16.349,10
      C19.857,10 22.697,12.864 22.697,16.397
      C22.697,19.93 19.857,22.794 16.349,22.794 Z

      M62,62 L51.316,62 L51.316,43.802
      C51.316,38.813 49.42,36.025 45.471,36.025
      C41.175,36.025 38.93,38.926 38.93,43.802
      L38.93,62 L28.633,62 L28.633,27.333 L38.93,27.333
      L38.93,32.003
      C38.93,32.003 42.026,26.274 49.383,26.274
      C56.736,26.274 62,30.764 62,40.051 Z
    "
  />
</svg>
